<svg width="13" height="11" viewBox="0 0 13 11" fill="none" xmlns="http://www.w3.org/2000/svg">
<path d="M11.8094 4.33684H3.23793L6.05793 1.59319C6.13827 1.51567 6.20204 1.42343 6.24555 1.32181C6.28907 1.22019 6.31147 1.11119 6.31147 1.0011C6.31147 0.89101 6.28907 0.78201 6.24555 0.680387C6.20204 0.578765 6.13827 0.486531 6.05793 0.409006C5.89734 0.253685 5.68009 0.166504 5.45365 0.166504C5.2272 0.166504 5.00996 0.253685 4.84936 0.409006L1.17222 3.99492C0.850286 4.30627 0.668418 4.72914 0.666504 5.17077C0.670675 5.60951 0.852371 6.02897 1.17222 6.33828L4.84936 9.92419C4.92928 10.0014 5.02405 10.0625 5.12825 10.1041C5.23245 10.1457 5.34405 10.1669 5.45668 10.1665C5.5693 10.1661 5.68074 10.1441 5.78464 10.1019C5.88854 10.0596 5.98286 9.99778 6.06222 9.92002C6.14157 9.84227 6.20441 9.75007 6.24714 9.64869C6.28988 9.5473 6.31166 9.43873 6.31127 9.32915C6.31087 9.21958 6.28829 9.11115 6.24482 9.01007C6.20136 8.90898 6.13785 8.81721 6.05793 8.74001L3.23793 6.0047H11.8094C12.0367 6.0047 12.2547 5.91684 12.4155 5.76045C12.5762 5.60406 12.6665 5.39194 12.6665 5.17077C12.6665 4.9496 12.5762 4.73748 12.4155 4.58109C12.2547 4.4247 12.0367 4.33684 11.8094 4.33684Z" fill="#2A3C54"/>
</svg>
