<svg width="16" height="12" viewBox="0 0 16 12" fill="none" xmlns="http://www.w3.org/2000/svg">
<path d="M14.0719 1.41273L5.69673 9.78728C5.64042 9.84381 5.57351 9.88867 5.49982 9.91927C5.42613 9.94988 5.34713 9.96563 5.26734 9.96563C5.18755 9.96563 5.10854 9.94988 5.03486 9.91927C4.96117 9.88867 4.89425 9.84381 4.83795 9.78728L1.59916 6.54546C1.54285 6.48893 1.47593 6.44407 1.40224 6.41346C1.32856 6.38286 1.24955 6.3671 1.16976 6.3671C1.08997 6.3671 1.01097 6.38286 0.937281 6.41346C0.863595 6.44407 0.796678 6.48893 0.740369 6.54546V6.54546C0.683837 6.60177 0.638981 6.66869 0.608374 6.74237C0.577767 6.81606 0.562012 6.89506 0.562012 6.97485C0.562012 7.05464 0.577767 7.13365 0.608374 7.20733C0.638981 7.28102 0.683837 7.34794 0.740369 7.40425L3.98037 10.6436C4.32216 10.9848 4.78534 11.1764 5.26825 11.1764C5.75116 11.1764 6.21434 10.9848 6.55613 10.6436L14.9307 2.27091C14.9871 2.21462 15.0319 2.14774 15.0624 2.07411C15.093 2.00048 15.1087 1.92154 15.1087 1.84182C15.1087 1.76211 15.093 1.68317 15.0624 1.60954C15.0319 1.53591 14.9871 1.46903 14.9307 1.41273C14.8744 1.3562 14.8074 1.31134 14.7338 1.28074C14.6601 1.25013 14.5811 1.23438 14.5013 1.23438C14.4215 1.23438 14.3425 1.25013 14.2688 1.28074C14.1951 1.31134 14.1282 1.3562 14.0719 1.41273Z" fill="white" stroke="white"/>
</svg>
