<svg width="16" height="19" viewBox="0 0 16 19" fill="none" xmlns="http://www.w3.org/2000/svg">
<path d="M15.6075 0.0663391C15.3675 -0.045716 15.0825 -0.014046 14.8749 0.147947L11.0984 3.09913C10.9346 3.22703 10.8396 3.42067 10.8396 3.6253V12.7773H7.18555V8.45951C7.18555 8.0868 6.87556 7.78597 6.49425 7.78597H5.81419C2.60769 7.78597 0 10.3267 0 13.4509C0 13.8235 0.310013 14.1244 0.691295 14.1244H5.80294V15.8722C5.80294 17.5969 7.24308 19 9.01319 19C10.7833 19 12.2234 17.5969 12.2234 15.8722V14.072C14.3599 13.7468 16 11.943 16 9.7713V0.674118C16 0.414687 15.8475 0.178394 15.6075 0.0663391ZM5.80294 9.1343V12.7773H1.43636C1.76889 10.7189 3.59902 9.13914 5.80294 9.1343ZM10.8408 15.8734C10.8408 16.8551 10.0208 17.6541 9.01319 17.6541C8.00562 17.6541 7.18555 16.8551 7.18555 15.8734V14.1256H10.8396V15.8734H10.8408ZM14.6174 9.7725C14.6174 11.1976 13.5936 12.3948 12.2247 12.7018V3.94808L14.6174 2.07724V9.7713V9.7725Z" fill="#2A3C54"/>
</svg>
