<svg width="48" height="32" viewBox="0 0 48 32" fill="none" xmlns="http://www.w3.org/2000/svg">
<path d="M30.9631 5.57471H18.0371V26.4207H30.9631V5.57471Z" fill="#FF5F00"/>
<path d="M19.369 15.9999C19.3674 13.9926 19.8283 12.0113 20.7167 10.2058C21.6051 8.40033 22.8978 6.81806 24.4969 5.57873C22.5163 4.04178 20.1377 3.08604 17.633 2.82074C15.1283 2.55545 12.5986 2.9913 10.3329 4.07849C8.06717 5.16568 6.15695 6.86034 4.82053 8.96878C3.4841 11.0772 2.77539 13.5144 2.77539 16.0017C2.77539 18.4891 3.4841 20.9263 4.82053 23.0347C6.15695 25.1431 8.06717 26.8378 10.3329 27.925C12.5986 29.0122 15.1283 29.448 17.633 29.1827C20.1377 28.9174 22.5163 27.9617 24.4969 26.4248C22.8973 25.185 21.6043 23.6022 20.7159 21.796C19.8274 19.9899 19.3669 18.0078 19.369 15.9999Z" fill="#EB001B"/>
<path d="M44.939 24.2152V23.7881H45.1254V23.6997H44.6816V23.7881H44.8569V24.2152H44.939ZM45.8004 24.2152V23.6997H45.6662L45.5096 24.0679L45.3529 23.6997H45.2187V24.2152H45.3156V23.8249L45.4611 24.16H45.5618L45.7072 23.8249V24.2152H45.8004Z" fill="#F79E1B"/>
<path d="M46.2215 15.9997C46.2215 18.4873 45.5126 20.9246 44.1759 23.0331C42.8393 25.1416 40.9288 26.8363 38.6628 27.9233C36.3968 29.0103 33.8668 29.4459 31.362 29.1802C28.8571 28.9146 26.4785 27.9583 24.498 26.4209C26.0966 25.1805 27.3889 23.5978 28.2775 21.7922C29.1661 19.9866 29.6279 18.0054 29.6279 15.9979C29.6279 13.9904 29.1661 12.0092 28.2775 10.2036C27.3889 8.39803 26.0966 6.81533 24.498 5.57489C26.4785 4.03746 28.8571 3.08125 31.362 2.81558C33.8668 2.5499 36.3968 2.98548 38.6628 4.07251C40.9288 5.15954 42.8393 6.85417 44.1759 8.96269C45.5126 11.0712 46.2215 13.5085 46.2215 15.9961V15.9997Z" fill="#F79E1B"/>
</svg>
