<svg width="18" height="18" fill="inherit" xmlns="http://www.w3.org/2000/svg"><g clip-path="url(#clip0_575_6513)"><path d="M5.25 18a1.5 1.5 0 100-3 1.5 1.5 0 000 3zm7.5 0a1.5 1.5 0 100-3 1.5 1.5 0 000 3zm4.5-15.75h-1.5V.75a.75.75 0 10-1.5 0v1.5h-1.5a.75.75 0 100 1.5h1.5v1.5a.75.75 0 101.5 0v-1.5h1.5a.75.75 0 100-1.5z"/><path d="M16.328 7.295a.745.745 0 00-.871.604 2.25 2.25 0 01-2.214 1.851h-9.18l-.704-6H9.75a.75.75 0 100-1.5H3.181l-.031-.264A2.25 2.25 0 00.917 0H.75a.75.75 0 100 1.5h.166a.75.75 0 01.745.662l1.032 8.775a3.75 3.75 0 003.725 3.313h7.832a.75.75 0 100-1.5H6.418a2.25 2.25 0 01-2.122-1.5h8.947a3.75 3.75 0 003.69-3.084.75.75 0 00-.605-.872z"/></g><defs><clipPath id="clip0_575_6513"><path fill="#fff" d="M0 0h18v18H0z"/></clipPath></defs></svg>