<svg width="19" height="19" fill="inherit" xmlns="http://www.w3.org/2000/svg"><path d="M17.452 7.232l-5.516-5.517a3.642 3.642 0 00-5.144 0L1.276 7.232a2.166 2.166 0 00-.64 1.542v7.14a2.182 2.182 0 002.183 2.182h13.09a2.182 2.182 0 002.182-2.182v-7.14a2.167 2.167 0 00-.639-1.542zm-5.906 9.41H7.182V13.78a2.182 2.182 0 114.364 0v2.861zm5.09-.728a.727.727 0 01-.726.727H13v-2.86a3.636 3.636 0 00-7.272 0v2.86h-2.91a.727.727 0 01-.727-.727v-7.14a.735.735 0 01.213-.514l5.517-5.515a2.188 2.188 0 013.086 0l5.517 5.517c.135.137.212.32.213.512v7.14z"/></svg>