<svg width="100" height="33" fill="none" xmlns="http://www.w3.org/2000/svg"><g clip-path="url(#clip0_575_6495)" fill="#2A3C54"><path d="M76.413 24.255a4.391 4.391 0 00-.295-.953 3.545 3.545 0 00-1.71-1.777 4.378 4.378 0 00-1.672-.429 5.37 5.37 0 00-1.223.052 4.514 4.514 0 00-1.007.27 3.269 3.269 0 00-1.13.748c-.19.196-.36.428-.513.708-.002-.004-.007-.008-.008-.012a3.87 3.87 0 00-.804-.99 3.006 3.006 0 00-.675-.45 3.378 3.378 0 00-1.277-.326 4.473 4.473 0 00-1.017.03 4.164 4.164 0 00-.978.26c-.366.153-.641.323-.867.54-.148.14-.33.33-.46.577v-.919a.238.238 0 00-.237-.236h-1.474a.236.236 0 00-.236.236v10.578c0 .13.101.232.23.236a30.73 30.73 0 001.493-.004.233.233 0 00.227-.236v-6.024c0-.243-.002-.495.018-.739.015-.202.041-.442.105-.68.114-.43.326-.798.627-1.091.261-.254.572-.439.927-.548.295-.093.61-.139.96-.137.299 0 .572.044.81.13.49.174.864.491 1.11.944.204.377.315.811.338 1.333.004.095.004.192.004.287v.096c0 .506 0 1.158-.002 1.855-.002 1.86-.006 3.97.008 4.58a.235.235 0 00.236.232h1.496c.13 0 .236-.105.236-.236v-6.463c0-.18 0-.367.025-.55.044-.295.105-.533.196-.752.157-.377.394-.69.705-.932.384-.3.835-.468 1.378-.516.352-.031.657-.012.93.058.396.099.73.29.996.565.276.288.465.659.576 1.137.077.333.089.67.09.984.004 1.204.007 3.228.007 4.727v1.742c0 .131.107.236.235.236h1.477c.13 0 .235-.105.235-.236v-6.8c0-.397-.031-.76-.098-1.107l.008.002zM47.74 30.551h-6.2V19.628a.255.255 0 00-.259-.254h-.507c-.267 0-.532.002-.8.004h-.16a.256.256 0 00-.253.256v10.917h-.022v1.927h8.2a.237.237 0 00.236-.237v-1.454a.236.236 0 00-.235-.236zm10.024-8.11c-.437-.478-.994-.833-1.704-1.083-.39-.137-.8-.236-1.257-.303a7.416 7.416 0 00-.748-.078 7.439 7.439 0 00-1.11.014 8.925 8.925 0 01-.224.02c-.15.012-.307.026-.46.054l-.03.006c-.25.045-.512.09-.766.146a9.12 9.12 0 00-1.132.334c-.14.051-.28.105-.42.16l-.017.008a.235.235 0 00-.127.32c.147.31.475.942.64 1.232a.237.237 0 00.293.1l.144-.057c.208-.085.422-.172.635-.252a5.82 5.82 0 011.101-.281c.162-.026.327-.038.509-.05.043-.002.087-.006.132-.01.075-.006.153-.014.226-.014.047 0 .097.004.146.008.048.004.095.008.143.01a4.3 4.3 0 01.602.038c.558.087 1.144.222 1.633.613.235.188.417.44.522.726.07.19.107.377.111.555l.006.334v.018h-3.316c-.27.013-.568.037-.934.079-.12.014-.237.034-.346.057-.404.092-.72.19-1 .312-.505.22-.918.49-1.267.825a3.51 3.51 0 00-.817 1.198c-.115.28-.19.58-.222.893a4.255 4.255 0 00.053 1.143c.131.666.442 1.258.921 1.76.313.327.697.602 1.144.82a5.36 5.36 0 001.55.479c.339.051.681.071.972.083h.051c.072 0 .145-.006.214-.012.062-.004.123-.01.184-.01a4.33 4.33 0 00.923-.133 4.073 4.073 0 001.805-.964c.065-.06.133-.117.202-.182l.012-.012v.817c0 .131.107.236.235.236h1.374c.13 0 .236-.107.236-.236v-7.49c0-.247-.026-.493-.074-.737a3.126 3.126 0 00-.748-1.496v.002zm-1.095 6.595c-.041.468-.257.877-.643 1.216-.255.224-.574.385-.976.492a3.45 3.45 0 01-.782.133c-.13.004-.259.016-.384.026-.055.004-.108.01-.154.011-.08-.006-.158-.008-.235-.012a6.39 6.39 0 01-.49-.035c-.585-.078-1.027-.226-1.39-.468a1.859 1.859 0 01-.832-1.75c.057-.532.29-.962.694-1.278.287-.224.636-.383 1.067-.486a4.9 4.9 0 01.65-.103 4.41 4.41 0 01.407-.024h.062v-.014h2.983c.018 1.078.033 2.192.026 2.294l-.002-.002zm30.595-6.595c-.438-.478-.994-.833-1.705-1.083a6.7 6.7 0 00-1.256-.303c-.3-.044-.53-.068-.749-.078a7.446 7.446 0 00-1.11.014 8.836 8.836 0 01-.224.02c-.15.012-.307.026-.46.054l-.029.006c-.252.045-.513.09-.766.146a9.12 9.12 0 00-1.133.334c-.14.051-.28.105-.42.16l-.017.008a.237.237 0 00-.127.32c.147.31.475.942.64 1.232a.237.237 0 00.293.1l.144-.057c.208-.085.422-.172.636-.252.32-.12.68-.212 1.1-.281.162-.026.327-.038.51-.05.043-.002.086-.006.132-.01.075-.006.152-.014.225-.014.05 0 .097.004.147.008.047.004.095.008.142.01.204.002.404.008.602.038.558.087 1.144.222 1.633.613a1.72 1.72 0 01.633 1.281l.007.334v.018h-3.317c-.27.013-.567.037-.933.079a3.808 3.808 0 00-.347.057c-.403.092-.722.19-1 .312-.504.22-.918.49-1.266.825a3.501 3.501 0 00-.818 1.198 3.2 3.2 0 00-.222.893 4.238 4.238 0 00.054 1.143c.13.666.441 1.258.92 1.76.313.327.697.602 1.145.82a5.319 5.319 0 001.55.479c.338.051.68.071.972.083h.05c.072 0 .145-.006.215-.012.06-.004.122-.01.184-.01.336-.006.655-.069.922-.133a4.072 4.072 0 001.805-.964c.066-.06.133-.117.202-.182l.012-.012v.817c0 .131.107.236.236.236h1.374c.13 0 .235-.107.235-.236v-7.49c0-.247-.024-.493-.073-.737a3.124 3.124 0 00-.748-1.496v.002zm-1.095 6.595c-.041.468-.257.877-.643 1.216-.256.224-.575.385-.977.492a3.43 3.43 0 01-.781.133c-.13.004-.26.016-.384.026-.056.004-.109.01-.155.011-.079-.006-.158-.008-.235-.012a6.39 6.39 0 01-.489-.035c-.586-.078-1.027-.226-1.39-.468a1.855 1.855 0 01-.833-1.75c.058-.532.291-.962.695-1.278.287-.224.635-.383 1.067-.486.23-.055.457-.083.649-.103a4.45 4.45 0 01.408-.024h.061v-.014h2.983c.018 1.078.034 2.192.026 2.294l-.002-.002zm13.149-5.101a3.134 3.134 0 00-.748-1.496c-.437-.478-.994-.833-1.704-1.083a6.71 6.71 0 00-1.257-.303c-.3-.044-.53-.068-.749-.078a7.44 7.44 0 00-1.11.014 8.228 8.228 0 01-.224.02c-.15.012-.306.026-.459.053l-.027.006c-.252.046-.513.092-.769.147a9.129 9.129 0 00-1.132.334c-.14.051-.281.105-.42.16l-.017.008a.23.23 0 00-.133.133.238.238 0 00.006.186c.146.31.475.943.641 1.232a.237.237 0 00.293.102l.147-.06c.206-.083.421-.17.631-.25.321-.12.681-.212 1.1-.281.163-.026.328-.038.51-.05.043-.002.087-.006.132-.01.075-.006.153-.014.226-.014.052 0 .097.004.146.008.048.004.095.008.143.01.204.002.404.008.602.038.558.087 1.144.222 1.633.613.235.188.417.44.522.726.07.19.107.377.111.555l.006.337v.014h-3.315c-.272.014-.57.038-.935.08-.12.014-.237.034-.346.057a5.53 5.53 0 00-1 .312c-.504.22-.918.49-1.266.825a3.503 3.503 0 00-.818 1.198c-.115.28-.19.58-.222.893a4.237 4.237 0 00.054 1.143c.13.666.441 1.26.92 1.76.313.327.697.602 1.144.82.48.235 1.002.395 1.55.479.339.051.681.071.972.083h.051c.072 0 .143-.006.214-.012.061-.004.123-.01.185-.01.336-.006.654-.07.922-.133a4.07 4.07 0 001.805-.964l.208-.186.006-.006v.817c0 .131.107.236.235.236h1.374c.13 0 .235-.107.235-.236v-7.49a3.85 3.85 0 00-.073-.737zm-1.842 5.099c-.042.468-.258.877-.644 1.216-.255.224-.574.385-.973.492a3.434 3.434 0 01-.783.133c-.13.004-.259.015-.383.025-.056.004-.11.01-.153.012-.079-.006-.158-.008-.236-.012a6.374 6.374 0 01-.489-.035c-.585-.078-1.026-.226-1.389-.468a1.86 1.86 0 01-.833-1.75c.057-.534.29-.962.694-1.278.287-.224.638-.383 1.067-.486.23-.055.458-.083.65-.103.13-.014.267-.022.408-.024h.06v-.014h2.984c.018 1.075.034 2.192.026 2.294l-.006-.002zm-34.842-15c.155.006.309-.02.464-.022.322-.004.635-.064.948-.137a4.154 4.154 0 001.85-.988l.048-.043v.797c0 .125.1.226.226.226h12.433v-1.84h-.02V1.59a.243.243 0 00-.244-.244h-.152c-.256 0-.509-.004-.764-.004h-.485a.245.245 0 00-.248.244v10.441h-8.672V4.926h-1.924v.032h-3.36v.004a1.3 1.3 0 00-.153-.004c-.325.016-.647.045-.97.081a3.084 3.084 0 00-.355.06c-.35.079-.698.176-1.029.319-.48.21-.92.482-1.3.847a3.596 3.596 0 00-.838 1.226c-.12.294-.194.6-.227.913-.018.18-.024 1.603-.014 1.785.012.21.028.419.07.625.043.226.108.44.19.645-.19.077-.389.157-.583.23a5.503 5.503 0 01-1.053.268c-.154.025-.313.035-.487.047a2.69 2.69 0 00-.126.01c-.014 0-.028.002-.042.004V12h-3.708s-.011 0-.017.006a2.877 2.877 0 01-.368-.031c-.535-.084-1.093-.213-1.56-.586a1.6 1.6 0 01-.501-.694 1.575 1.575 0 01-.105-.532l-.006-.32-.123-6.435c0-.125-.1-.226-.225-.226H47.89a.226.226 0 00-.225.226v.988h-.149v.03h-3.252v.004a1.205 1.205 0 00-.147-.004c-.312.016-.625.044-.938.08a5.37 5.37 0 00-1.338.367c-.465.202-.89.466-1.259.819a3.504 3.504 0 00-.81 1.186c-.116.284-.188.58-.22.883a27.782 27.782 0 00-.011 1.52c.012.204.028.404.067.605a3.45 3.45 0 00.91 1.741c.325.34.715.61 1.135.814a5.372 5.372 0 001.544.476c.323.05.647.07.972.083.148.006.299-.02.447-.022.311-.004.616-.061.917-.133a4 4 0 001.79-.956c.06-.055.326-.325.551-.555.133.35.329.67.576.944.418.458.95.798 1.63 1.036a6.3 6.3 0 001.201.29 7.364 7.364 0 001.051.085v-.01h3.316v.011a4.46 4.46 0 00.475-.025c.071-.008.142-.014.214-.02.144-.012.293-.024.439-.05l.03-.006c.241-.043.489-.087.732-.139.33-.07.685-.176 1.083-.319.135-.05.27-.101.402-.153l.017-.006a.242.242 0 00.107-.087c.27.226.569.417.885.572a5.518 5.518 0 001.596.491 9.42 9.42 0 001.005.088v-.002zm-15.06-4.61c-.043.481-.263.908-.668 1.265-.29.254-.636.409-1.008.508-.263.07-.529.125-.802.135-.186.006-.372.026-.548.037-.253-.015-.495-.017-.734-.05-.505-.065-.996-.192-1.428-.481a1.913 1.913 0 01-.746-.923c-.113-.291-.152-1.587-.119-1.892.058-.538.287-.99.723-1.33.328-.255.699-.404 1.096-.5a5.852 5.852 0 011.079-.131V6.05h3.124c.02 1.47.04 3.255.03 3.37l.002.004zm18.487 4.233c.025.037.057.07.095.095a.11.11 0 01-.096-.095zm-6.042-2.81c-.116-.3-.158-1.854-.122-2.17.06-.557.297-1.021.748-1.372.339-.264.722-.419 1.134-.518a5.658 5.658 0 011.114-.135v-.014h3.227c.022 1.591.044 3.579.032 3.698-.044.498-.271.938-.69 1.307-.3.262-.658.423-1.042.526a3.667 3.667 0 01-.83.14c-.194.009-.386.029-.566.04-.261-.015-.512-.02-.758-.051-.523-.07-1.027-.2-1.475-.498a1.986 1.986 0 01-.772-.952zM47.794.228a.224.224 0 00-.224-.224h-.14c-.234 0-.467-.002-.7-.004h-.444a.226.226 0 00-.228.224v1.43h1.736V.229zm-2.687 0a.224.224 0 00-.224-.224h-.14c-.234 0-.467-.002-.7-.004h-.446a.226.226 0 00-.228.224v1.43h1.736V.23l.002-.002zm-20.394 1.53a1.096 1.096 0 00-1.16.133l-5.98 4.807c-.259.208-.41.523-.41.857V22.46h-5.785v-7.03c0-.607-.491-1.098-1.095-1.098H9.206C4.13 14.332 0 18.47 0 23.559c0 .608.49 1.098 1.095 1.098h8.094v2.846c0 2.81 2.28 5.095 5.083 5.095 2.803 0 5.083-2.286 5.083-5.095V24.57a7.096 7.096 0 005.98-7.005V2.748c0-.423-.242-.808-.622-.99zM9.19 16.528v5.933H2.274c.527-3.352 3.425-5.925 6.915-5.933zm7.977 10.976a2.9 2.9 0 01-2.894 2.9 2.9 2.9 0 01-2.894-2.9v-2.847h5.786v2.847h.002zm5.98-9.937a4.902 4.902 0 01-3.789 4.771V8.08l3.789-3.047v12.534z"/></g><defs><clipPath id="clip0_575_6495"><path fill="#fff" d="M0 0h100v33H0z"/></clipPath></defs></svg>