<svg width="16" height="16" fill="none" xmlns="http://www.w3.org/2000/svg"><g clip-path="url(#clip0_575_6632)"><path d="M15.52 9.753l-1.47-1.15c.019-.177.035-.384.035-.604 0-.219-.016-.426-.035-.604l1.472-1.15a.721.721 0 00.174-.919l-1.53-2.646a.709.709 0 00-.884-.318l-1.735.697a5.946 5.946 0 00-1.042-.605L10.24.614A.708.708 0 009.534 0H6.467a.706.706 0 00-.705.608l-.265 1.847a6.242 6.242 0 00-1.04.605l-1.74-.699a.723.723 0 00-.878.313L.308 5.324a.717.717 0 00.173.923l1.471 1.15A5.8 5.8 0 001.917 8c0 .183.012.379.035.604L.48 9.754a.721.721 0 00-.173.92l1.529 2.645a.708.708 0 00.885.318l1.735-.696c.332.239.68.442 1.041.604l.264 1.84a.708.708 0 00.707.615h3.067a.707.707 0 00.706-.608l.264-1.847c.35-.158.692-.357 1.04-.605l1.74.699a.704.704 0 00.878-.312l1.536-2.66a.72.72 0 00-.178-.914zM8 10.667A2.67 2.67 0 015.335 8a2.67 2.67 0 012.667-2.667A2.67 2.67 0 0110.667 8a2.67 2.67 0 01-2.666 2.667z" fill="#000"/></g><defs><clipPath id="clip0_575_6632"><path fill="#fff" d="M0 0h16v16H0z"/></clipPath></defs></svg>