<svg width="18" height="18" fill="inherit" xmlns="http://www.w3.org/2000/svg"><path fill-rule="evenodd" clip-rule="evenodd" d="M1.317 7.683v9.659c0 .363.295.658.658.658h14.05a.659.659 0 00.658-.659V7.684a.659.659 0 00-1.317 0v9H2.634v-9a.659.659 0 00-1.317 0z"/><path fill-rule="evenodd" clip-rule="evenodd" d="M7.244 10.976a1.533 1.533 0 00-1.537 1.537v4.829a.66.66 0 00.66.658h5.267a.659.659 0 00.659-.659v-4.829a1.533 1.533 0 00-1.537-1.537H7.244zm0 1.317h3.512a.22.22 0 01.22.22v4.17H7.025v-4.17a.22.22 0 01.22-.22z"/><path fill-rule="evenodd" clip-rule="evenodd" d="M17.78 16.683H.22A.659.659 0 00.22 18h17.56a.659.659 0 000-1.317zM14.428 0H3.572C2.99 0 2.458.328 2.198.85 1.668 1.91.42 4.405.007 5.341a1.661 1.661 0 00-.022 1.403l.014.03a2.854 2.854 0 004.698.587 2.85 2.85 0 004.302 0 2.85 2.85 0 004.303 0c.524.6 1.294.98 2.152.98 1.095 0 2.05-.621 2.573-1.513.012-.02.023-.042.034-.064a1.713 1.713 0 00-.034-1.465L15.802.85A1.532 1.532 0 0014.428 0zM3.572 1.317h10.856a.22.22 0 01.196.121L16.85 5.89a.392.392 0 01.02.306c-.299.486-.817.828-1.416.828a1.537 1.537 0 01-1.506-1.228.659.659 0 00-1.291 0 1.538 1.538 0 01-3.012 0 .658.658 0 00-1.29 0 1.537 1.537 0 01-3.012 0 .658.658 0 00-1.29 0 1.537 1.537 0 01-2.868.405.348.348 0 01.01-.29c.003-.009.009-.018.013-.028.403-.917 1.642-3.393 2.168-4.445a.218.218 0 01.196-.12z"/></svg>