<svg width="14" height="15" fill="none" xmlns="http://www.w3.org/2000/svg"><path d="M7 .5c-3.869 0-7 3.13-7 7 0 3.869 3.13 7 7 7 3.869 0 7-3.13 7-7 0-3.869-3.13-7-7-7zm-.207 10.276a.708.708 0 01-.7-.71c0-.386.313-.709.7-.709.387 0 .71.323.71.71 0 .378-.314.71-.71.71zm1.05-3.584c-.507.396-.516.673-.516 1.152 0 .175-.092.378-.543.378-.378 0-.507-.139-.507-.618 0-.792.35-1.17.617-1.4.304-.258.82-.544.82-1.042 0-.423-.368-.626-.829-.626-.94 0-.737.71-1.235.71-.248 0-.553-.166-.553-.526 0-.497.572-1.234 1.816-1.234 1.179 0 1.962.654 1.962 1.52s-.783 1.493-1.032 1.686z" fill="#101010"/></svg>