<svg width="32" height="32" fill="none" xmlns="http://www.w3.org/2000/svg"><path fill-rule="evenodd" clip-rule="evenodd" d="M4 6.667c-.736 0-1.333.597-1.333 1.333v16c0 .736.597 1.333 1.333 1.333h24c.736 0 1.333-.597 1.333-1.333V8c0-.736-.597-1.333-1.333-1.333H4zM0 8a4 4 0 014-4h24a4 4 0 014 4v16a4 4 0 01-4 4H4a4 4 0 01-4-4V8z" fill="#2D3748"/><path fill-rule="evenodd" clip-rule="evenodd" d="M0 13.333C0 12.597.597 12 1.333 12h29.334a1.333 1.333 0 010 2.667H1.333A1.333 1.333 0 010 13.333z" fill="#2D3748"/></svg>