<svg width="16" height="19" fill="none" xmlns="http://www.w3.org/2000/svg"><path d="M15.607.066a.708.708 0 00-.732.082l-3.777 2.951a.668.668 0 00-.258.526v9.152H7.186V8.46a.682.682 0 00-.692-.674h-.68C2.608 7.786 0 10.326 0 13.451c0 .372.31.673.691.673h5.112v1.748c0 1.725 1.44 3.128 3.21 3.128s3.21-1.403 3.21-3.128v-1.8C14.36 13.747 16 11.943 16 9.772V.673a.672.672 0 00-.393-.608zM5.803 9.134v3.643H1.436C1.77 10.72 3.6 9.14 5.803 9.134zm5.038 6.74c0 .981-.82 1.78-1.828 1.78-1.007 0-1.827-.799-1.827-1.78v-1.748h3.654v1.747zm3.776-6.101c0 1.425-1.023 2.622-2.392 2.929V3.948l2.392-1.87v7.694z" fill="#2A3C54"/></svg>