<svg width="48" height="32" fill="none" xmlns="http://www.w3.org/2000/svg"><path d="M30.963 5.575H18.037V26.42h12.926V5.575z" fill="#FF5F00"/><path d="M19.369 16a13.097 13.097 0 011.348-5.794 13.268 13.268 0 013.78-4.627 13.52 13.52 0 00-6.864-2.758 13.575 13.575 0 00-7.3 1.257 13.369 13.369 0 00-5.512 4.89 13.133 13.133 0 00-2.046 7.034c0 2.487.71 4.924 2.046 7.033a13.369 13.369 0 005.512 4.89 13.575 13.575 0 007.3 1.258 13.52 13.52 0 006.864-2.758 13.268 13.268 0 01-3.781-4.629A13.097 13.097 0 0119.369 16z" fill="#EB001B"/><path d="M44.939 24.215v-.427h.186V23.7h-.443v.088h.175v.427h.082zm.861 0V23.7h-.134l-.156.368-.157-.368h-.134v.515h.097v-.39l.145.335h.1l.146-.335v.39h.093zM46.221 16c0 2.487-.708 4.925-2.045 7.033a13.368 13.368 0 01-5.513 4.89 13.576 13.576 0 01-7.301 1.257 13.52 13.52 0 01-6.864-2.76 13.288 13.288 0 003.78-4.628 13.12 13.12 0 001.35-5.794 13.12 13.12 0 00-1.35-5.794 13.288 13.288 0 00-3.78-4.63 13.52 13.52 0 016.864-2.758c2.505-.266 5.035.17 7.3 1.257a13.368 13.368 0 015.514 4.89 13.133 13.133 0 012.045 7.033V16z" fill="#F79E1B"/></svg>