<svg width="16" height="16" viewBox="0 0 16 16" fill="none" xmlns="http://www.w3.org/2000/svg">
<path d="M7.99996 0.666656C6.67388 0.666656 5.40211 1.19344 4.46443 2.13112C3.52674 3.0688 2.99996 4.34057 2.99996 5.66666V9.56666L1.89329 11.2333C1.76065 11.4378 1.68541 11.6743 1.67545 11.9178C1.66549 12.1614 1.72118 12.4031 1.83669 12.6178C1.9522 12.8325 2.12328 13.0121 2.33204 13.138C2.54079 13.2639 2.77953 13.3313 3.02329 13.3333H12.9766C13.222 13.3325 13.4625 13.2654 13.6728 13.139C13.883 13.0126 14.0552 12.8317 14.171 12.6154C14.2868 12.3991 14.342 12.1556 14.3307 11.9105C14.3193 11.6654 14.2419 11.428 14.1066 11.2233L13 9.56666V5.66666C13 4.34057 12.4732 3.0688 11.5355 2.13112C10.5978 1.19344 9.32604 0.666656 7.99996 0.666656Z" fill="black"/>
<path d="M8.00003 15.3333C8.41323 15.3329 8.81614 15.2044 9.15338 14.9657C9.49062 14.7269 9.74563 14.3896 9.88337 14H6.1167C6.25443 14.3896 6.50944 14.7269 6.84668 14.9657C7.18392 15.2044 7.58683 15.3329 8.00003 15.3333Z" fill="black"/>
</svg>
