<svg width="18" height="18" viewBox="0 0 18 18" fill="inherit" xmlns="http://www.w3.org/2000/svg">
  <g clip-path="url(#clip0_575_6513)">
    <path
      d="M5.25 18.0005C6.07842 18.0005 6.74999 17.3289 6.74999 16.5005C6.74999 15.6721 6.07842 15.0005 5.25 15.0005C4.42157 15.0005 3.75 15.6721 3.75 16.5005C3.75 17.3289 4.42157 18.0005 5.25 18.0005Z"
      fill="inherit" />
    <path
      d="M12.75 18.0005C13.5784 18.0005 14.25 17.3289 14.25 16.5005C14.25 15.6721 13.5784 15.0005 12.75 15.0005C11.9216 15.0005 11.25 15.6721 11.25 16.5005C11.25 17.3289 11.9216 18.0005 12.75 18.0005Z"
      fill="inherit" />
    <path
      d="M17.25 2.25H15.75V0.75C15.75 0.551088 15.671 0.360322 15.5303 0.21967C15.3897 0.0790176 15.1989 0 15 0C14.8011 0 14.6103 0.0790176 14.4697 0.21967C14.329 0.360322 14.25 0.551088 14.25 0.75V2.25H12.75C12.5511 2.25 12.3603 2.32902 12.2197 2.46967C12.079 2.61032 12 2.80109 12 3C12 3.19891 12.079 3.38968 12.2197 3.53033C12.3603 3.67098 12.5511 3.75 12.75 3.75H14.25V5.25C14.25 5.44891 14.329 5.63968 14.4697 5.78033C14.6103 5.92098 14.8011 6 15 6C15.1989 6 15.3897 5.92098 15.5303 5.78033C15.671 5.63968 15.75 5.44891 15.75 5.25V3.75H17.25C17.4489 3.75 17.6397 3.67098 17.7803 3.53033C17.921 3.38968 18 3.19891 18 3C18 2.80109 17.921 2.61032 17.7803 2.46967C17.6397 2.32902 17.4489 2.25 17.25 2.25V2.25Z"
      fill="inherit" />
    <path
      d="M16.3282 7.2945C16.2313 7.27635 16.1317 7.27764 16.0352 7.29827C15.9387 7.31891 15.8473 7.35849 15.7662 7.41472C15.6852 7.47095 15.6161 7.5427 15.5629 7.62584C15.5098 7.70897 15.4737 7.80181 15.4567 7.899C15.3632 8.41812 15.0903 8.88787 14.6856 9.2262C14.2809 9.56452 13.7702 9.74992 13.2427 9.75H4.0635L3.3585 3.75H9.75C9.94891 3.75 10.1397 3.67098 10.2803 3.53033C10.421 3.38968 10.5 3.19891 10.5 3C10.5 2.80109 10.421 2.61032 10.2803 2.46967C10.1397 2.32902 9.94891 2.25 9.75 2.25H3.1815L3.15 1.986C3.08537 1.43895 2.82229 0.934615 2.41064 0.568578C1.99899 0.202541 1.46736 0.000234627 0.9165 0L0.75 0C0.551088 0 0.360322 0.0790176 0.21967 0.21967C0.0790176 0.360322 0 0.551088 0 0.75C0 0.948912 0.0790176 1.13968 0.21967 1.28033C0.360322 1.42098 0.551088 1.5 0.75 1.5H0.9165C1.1002 1.50002 1.2775 1.56747 1.41478 1.68954C1.55206 1.81161 1.63976 1.97981 1.66125 2.16225L2.69325 10.9373C2.80039 11.8498 3.23886 12.6913 3.92543 13.302C4.612 13.9127 5.49889 14.25 6.41775 14.25H14.25C14.4489 14.25 14.6397 14.171 14.7803 14.0303C14.921 13.8897 15 13.6989 15 13.5C15 13.3011 14.921 13.1103 14.7803 12.9697C14.6397 12.829 14.4489 12.75 14.25 12.75H6.41775C5.95239 12.7501 5.49845 12.6059 5.11846 12.3372C4.73847 12.0686 4.45112 11.6887 4.296 11.25H13.2427C14.1219 11.2501 14.9731 10.9413 15.6477 10.3776C16.3223 9.81392 16.7774 9.03114 16.9335 8.166C16.951 8.06903 16.9493 7.96956 16.9283 7.87327C16.9074 7.77699 16.8677 7.68577 16.8115 7.60483C16.7553 7.5239 16.6836 7.45483 16.6007 7.40158C16.5178 7.34834 16.4252 7.31195 16.3282 7.2945Z"
      fill="inherit" />
  </g>
  <defs>
    <clipPath id="clip0_575_6513">
      <rect width="18" height="18" fill="white" />
    </clipPath>
  </defs>
</svg>
