<svg width="19" height="19" viewBox="0 0 19 19" fill="inherit" xmlns="http://www.w3.org/2000/svg">
  <path
    d="M17.452 7.2318L11.9356 1.7147C11.2529 1.03397 10.3281 0.651703 9.364 0.651703C8.39988 0.651703 7.4751 1.03397 6.79236 1.7147L1.276 7.2318C1.07267 7.43382 0.911469 7.67419 0.801733 7.93898C0.691997 8.20377 0.635911 8.48771 0.636728 8.77434V15.914C0.636728 16.4926 0.866597 17.0476 1.27577 17.4568C1.68494 17.8659 2.23989 18.0958 2.81855 18.0958H15.9095C16.4881 18.0958 17.0431 17.8659 17.4522 17.4568C17.8614 17.0476 18.0913 16.4926 18.0913 15.914V8.77434C18.0921 8.48771 18.036 8.20377 17.9263 7.93898C17.8165 7.67419 17.6553 7.43382 17.452 7.2318V7.2318ZM11.5458 16.6412H7.18218V13.7802C7.18218 13.2015 7.41205 12.6466 7.82122 12.2374C8.23039 11.8282 8.78535 11.5983 9.364 11.5983C9.94266 11.5983 10.4976 11.8282 10.9068 12.2374C11.316 12.6466 11.5458 13.2015 11.5458 13.7802V16.6412ZM16.6367 15.914C16.6367 16.1069 16.5601 16.2918 16.4237 16.4282C16.2873 16.5646 16.1023 16.6412 15.9095 16.6412H13.0004V13.7802C13.0004 12.8157 12.6172 11.8908 11.9353 11.2089C11.2533 10.5269 10.3284 10.1438 9.364 10.1438C8.39958 10.1438 7.47465 10.5269 6.7927 11.2089C6.11075 11.8908 5.72764 12.8157 5.72764 13.7802V16.6412H2.81855C2.62566 16.6412 2.44068 16.5646 2.30429 16.4282C2.1679 16.2918 2.09127 16.1069 2.09127 15.914V8.77434C2.09195 8.5816 2.1685 8.39688 2.30436 8.26016L7.82073 2.74525C8.23069 2.3372 8.78558 2.10812 9.364 2.10812C9.94243 2.10812 10.4973 2.3372 10.9073 2.74525L16.4236 8.26234C16.559 8.39852 16.6355 8.58235 16.6367 8.77434V15.914Z"
    fill="inherit" />
</svg>
