<svg width="100" height="33" viewBox="0 0 100 33" fill="none" xmlns="http://www.w3.org/2000/svg">
<g clip-path="url(#clip0_575_6495)">
<path d="M76.4126 24.2546C76.3467 23.9154 76.2479 23.594 76.1175 23.3023C75.7632 22.5088 75.1888 21.9097 74.4089 21.5248C73.9126 21.2788 73.3504 21.136 72.7364 21.0963C72.2992 21.0686 71.8992 21.0844 71.5132 21.1479C71.1077 21.2153 70.787 21.3007 70.5059 21.4177C70.0443 21.6101 69.6742 21.8541 69.3754 22.1656C69.1851 22.362 69.0168 22.5941 68.8626 22.8738C68.8607 22.8699 68.8565 22.8659 68.8546 22.8619C68.6431 22.489 68.3717 22.1557 68.051 21.872C67.8534 21.6954 67.6254 21.5447 67.376 21.4217C67.004 21.2372 66.5864 21.132 66.0992 21.0963C65.7236 21.0686 65.3906 21.0785 65.0821 21.1261C64.7059 21.1836 64.3851 21.2689 64.104 21.386C63.7382 21.5387 63.4626 21.7093 63.237 21.9256C63.0888 22.0664 62.9065 22.2569 62.7778 22.5028C62.7778 22.3541 62.7778 22.2053 62.7778 22.0585C62.7778 21.8998 62.7778 21.743 62.7778 21.5843C62.7778 21.4554 62.6711 21.3483 62.54 21.3483H61.0656C60.935 21.3483 60.8301 21.4554 60.8301 21.5843V32.1622C60.8301 32.2912 60.9311 32.3943 61.0595 32.3983C61.2199 32.4023 61.4675 32.4042 61.7211 32.4042C62.0333 32.4042 62.3583 32.4003 62.5522 32.3943C62.6809 32.3904 62.7796 32.2872 62.7796 32.1583V31.9142C62.7796 30.8271 62.7796 27.8453 62.7796 26.3336C62.7796 26.2662 62.7796 26.2007 62.7796 26.1333C62.7796 25.8913 62.7778 25.6393 62.7979 25.3953C62.8132 25.1929 62.8394 24.9529 62.9028 24.7149C63.0175 24.2843 63.229 23.9174 63.5303 23.6237C63.7912 23.3698 64.1022 23.1853 64.4565 23.0762C64.7516 22.9829 65.0662 22.9373 65.4162 22.9393C65.7156 22.9393 65.9888 22.9829 66.2278 23.0682C66.7168 23.2428 67.0912 23.5602 67.3364 24.0126C67.5406 24.3895 67.6516 24.824 67.6748 25.3457C67.679 25.4409 67.679 25.5382 67.679 25.6334V25.7286C67.679 26.2345 67.679 26.8872 67.6772 27.5835C67.6748 29.4444 67.6711 31.5532 67.6851 32.1642C67.687 32.2931 67.7918 32.3964 67.9205 32.3964H69.4168C69.5473 32.3964 69.6528 32.2912 69.6528 32.1602C69.6528 31.3072 69.6528 27.5617 69.6528 25.7286V25.6969C69.6528 25.5163 69.6522 25.3298 69.6784 25.1474C69.7217 24.8518 69.7833 24.6137 69.8742 24.3954C70.0309 24.0185 70.2681 23.7051 70.579 23.463C70.9632 23.1635 71.4144 22.9948 71.9565 22.9472C72.3089 22.9155 72.6138 22.9353 72.887 23.0048C73.2827 23.104 73.6175 23.2944 73.8827 23.5702C74.1595 23.8578 74.3479 24.2288 74.4589 24.7069C74.5357 25.0402 74.5479 25.3774 74.5498 25.6909C74.5534 26.8951 74.5559 28.9186 74.5559 30.4184C74.5559 31.2159 74.5559 31.8646 74.5559 32.1602C74.5559 32.2912 74.6626 32.3964 74.7912 32.3964H76.2681C76.3986 32.3964 76.5034 32.2912 76.5034 32.1602V32.0849C76.5034 31.0751 76.5034 27.2641 76.5034 25.3596C76.5034 24.9629 76.4717 24.5998 76.4046 24.2526L76.4126 24.2546Z" fill="#2A3C54"/>
<path d="M47.7399 30.5512H41.5403V19.6281C41.5403 19.4872 41.4255 19.3741 41.281 19.3741C41.1088 19.3741 40.9405 19.3741 40.7742 19.3741C40.507 19.3741 40.2418 19.3761 39.9745 19.3781H39.8142C39.6736 19.3781 39.5608 19.4951 39.5608 19.634V30.5512H39.5391V32.4775H47.7399C47.8706 32.4775 47.9755 32.3704 47.9755 32.2414V30.7872C47.9755 30.6563 47.8686 30.5512 47.7399 30.5512Z" fill="#2A3C54"/>
<path d="M57.7642 22.4414C57.3267 21.9633 56.7704 21.6081 56.0598 21.3582C55.6699 21.2213 55.2601 21.1221 54.8029 21.0547C54.504 21.011 54.2724 20.9872 54.0546 20.9773C53.7003 20.9614 53.3203 20.9515 52.9442 20.9912C52.8689 20.9991 52.7957 21.005 52.7205 21.011C52.5701 21.0229 52.4137 21.0368 52.2612 21.0646L52.2316 21.0706C51.9802 21.1161 51.7189 21.1618 51.4655 21.2173C51.1191 21.2927 50.749 21.4018 50.3332 21.5506C50.1928 21.6022 50.0522 21.6558 49.9137 21.7113L49.8958 21.7193C49.8345 21.7431 49.787 21.7907 49.7632 21.8522C49.7395 21.9136 49.7414 21.9792 49.7692 22.0387C49.9156 22.3481 50.2442 22.981 50.4085 23.2706C50.4659 23.3718 50.5926 23.4155 50.7015 23.3718L50.846 23.3143C51.0538 23.2289 51.2676 23.1417 51.4814 23.0623C51.802 22.9413 52.1623 22.8501 52.582 22.7806C52.7443 22.7548 52.9086 22.7429 53.0906 22.731C53.1342 22.7291 53.1778 22.7251 53.2233 22.7211C53.2985 22.7151 53.3757 22.7072 53.4489 22.7072C53.4964 22.7072 53.5459 22.7112 53.5954 22.7151C53.6429 22.7191 53.6904 22.7231 53.7379 22.7251C53.9418 22.727 54.1417 22.733 54.3397 22.7628C54.8979 22.8501 55.4838 22.9849 55.9728 23.3758C56.2083 23.5643 56.3904 23.8162 56.4953 24.1019C56.5646 24.2923 56.6022 24.4788 56.6062 24.6574L56.6121 24.9906C56.6121 24.9906 56.6121 25.0025 56.6121 25.0085H53.3856C53.3559 25.0085 53.3262 25.0085 53.2965 25.0085C53.0253 25.0224 52.7284 25.0461 52.3622 25.0878C52.2415 25.1017 52.1246 25.1216 52.0158 25.1454C51.612 25.2366 51.2953 25.3358 51.0162 25.4568C50.5114 25.6771 50.0977 25.9469 49.7493 26.2821C49.3931 26.6253 49.1179 27.028 48.9318 27.4804C48.817 27.7601 48.7418 28.0596 48.7101 28.3731C48.6923 28.5496 48.6884 28.7282 48.6962 28.9068C48.7062 29.0991 48.722 29.3055 48.7636 29.5158C48.8942 30.1823 49.205 30.7735 49.684 31.2754C49.9968 31.6028 50.3808 31.8785 50.8281 32.0968C51.3071 32.3309 51.8298 32.4916 52.3781 32.5749C52.7165 32.6265 53.059 32.6463 53.35 32.6582C53.3678 32.6582 53.3836 32.6582 53.4014 32.6582C53.4727 32.6582 53.5459 32.6523 53.6152 32.6463C53.6766 32.6423 53.7379 32.6364 53.7993 32.6364C54.1358 32.6305 54.4545 32.567 54.7217 32.5035C55.3828 32.3487 55.9886 32.0234 56.527 31.5393C56.5923 31.4798 56.6596 31.4223 56.7289 31.3568L56.7408 31.3449V32.1622C56.7408 32.2932 56.8476 32.3984 56.9764 32.3984H58.3501C58.4807 32.3984 58.5856 32.2912 58.5856 32.1622V24.6712C58.5856 24.4253 58.5599 24.1792 58.5124 23.9352C58.3995 23.3698 58.1403 22.852 57.7642 22.4394V22.4414ZM56.6695 29.0357C56.6279 29.5039 56.4121 29.9125 56.0262 30.2518C55.7708 30.476 55.4522 30.6366 55.0503 30.7438C54.7395 30.8271 54.4981 30.8688 54.2684 30.8767C54.1378 30.8807 54.0091 30.8926 53.8844 30.9025C53.829 30.9065 53.7756 30.9124 53.73 30.9144C53.6509 30.9085 53.5717 30.9065 53.4945 30.9025C53.3262 30.8946 53.1659 30.8867 53.0055 30.8668C52.4196 30.7894 51.9782 30.6406 51.6159 30.3986C51.2814 30.1744 51.038 29.8768 50.8975 29.5118C50.7886 29.2341 50.7509 28.9425 50.7826 28.6488C50.84 28.1172 51.0736 27.6867 51.4774 27.3712C51.7644 27.1471 52.1128 26.9884 52.5443 26.8852C52.7739 26.8297 53.0015 26.8019 53.1935 26.7821C53.3242 26.7681 53.4608 26.7602 53.6014 26.7582H53.6627V26.7444H56.6457C56.6636 27.8216 56.6794 28.9365 56.6715 29.0377L56.6695 29.0357Z" fill="#2A3C54"/>
<path d="M87.2636 22.4414C86.8264 21.9633 86.2697 21.6081 85.5593 21.3582C85.169 21.2213 84.7599 21.1221 84.3026 21.0547C84.0032 21.011 83.7721 20.9872 83.5544 20.9773C83.1995 20.9614 82.8197 20.9515 82.4434 20.9912C82.3684 20.9991 82.2953 21.005 82.2203 21.011C82.0697 21.0229 81.9129 21.0368 81.7605 21.0646L81.7312 21.0706C81.4794 21.1161 81.2184 21.1618 80.9648 21.2173C80.6184 21.2927 80.2483 21.4018 79.8325 21.5506C79.6922 21.6022 79.552 21.6558 79.4129 21.7113L79.3953 21.7193C79.3337 21.7431 79.2867 21.7907 79.2629 21.8522C79.2392 21.9136 79.241 21.9792 79.2684 22.0387C79.4148 22.3481 79.7434 22.981 79.9081 23.2706C79.9654 23.3718 80.0922 23.4155 80.2008 23.3718L80.3453 23.3143C80.5532 23.2289 80.7672 23.1417 80.9806 23.0623C81.3014 22.9413 81.6617 22.8501 82.0812 22.7806C82.2434 22.7548 82.4081 22.7429 82.5904 22.731C82.6337 22.7291 82.677 22.7251 82.7227 22.7211C82.7977 22.7151 82.8751 22.7072 82.9483 22.7072C82.9977 22.7072 83.0453 22.7112 83.0946 22.7151C83.1422 22.7191 83.1898 22.7231 83.2373 22.7251C83.441 22.727 83.641 22.733 83.8392 22.7628C84.3971 22.8501 84.9831 22.9849 85.4721 23.3758C85.7075 23.5643 85.8898 23.8162 85.9947 24.1019C86.0642 24.2923 86.1014 24.4788 86.1056 24.6574L86.1117 24.9906C86.1117 24.9906 86.1117 25.0025 86.1117 25.0085H82.8849C82.8556 25.0085 82.8258 25.0085 82.7959 25.0085C82.5245 25.0224 82.2276 25.0461 81.8617 25.0878C81.741 25.1017 81.6239 25.1216 81.5154 25.1454C81.1117 25.2366 80.7928 25.3358 80.5154 25.4568C80.0111 25.6771 79.5971 25.9469 79.2489 26.2821C78.8922 26.6253 78.6172 27.028 78.4312 27.4804C78.3166 27.7601 78.241 28.0596 78.2093 28.3731C78.1916 28.5496 78.1879 28.7282 78.1959 28.9068C78.2056 29.0991 78.2215 29.3055 78.2629 29.5158C78.3934 30.1823 78.7044 30.7735 79.1837 31.2754C79.4965 31.6028 79.88 31.8785 80.3276 32.0968C80.8068 32.3309 81.3294 32.4916 81.8776 32.5749C82.216 32.6265 82.5587 32.6463 82.8495 32.6582C82.8672 32.6582 82.8831 32.6582 82.9007 32.6582C82.9721 32.6582 83.0453 32.6523 83.1148 32.6463C83.1757 32.6423 83.2373 32.6364 83.2989 32.6364C83.6355 32.6305 83.9538 32.567 84.2209 32.5035C84.8825 32.3487 85.4879 32.0234 86.0264 31.5393C86.0916 31.4798 86.1593 31.4223 86.2282 31.3568L86.2404 31.3449V32.1622C86.2404 32.2932 86.3471 32.3984 86.4758 32.3984H87.8495C87.98 32.3984 88.0849 32.2912 88.0849 32.1622V24.6712C88.0849 24.4253 88.0611 24.1792 88.0117 23.9352C87.8989 23.3698 87.6398 22.852 87.2636 22.4394V22.4414ZM86.169 29.0357C86.1276 29.5039 85.9117 29.9125 85.5257 30.2518C85.2703 30.476 84.9514 30.6366 84.5495 30.7438C84.2392 30.8271 83.9977 30.8688 83.7678 30.8767C83.6373 30.8807 83.5087 30.8926 83.3837 30.9025C83.3282 30.9065 83.2751 30.9124 83.2294 30.9144C83.1501 30.9085 83.0709 30.9065 82.994 30.9025C82.8257 30.8946 82.6654 30.8867 82.505 30.8668C81.919 30.7894 81.4776 30.6406 81.1154 30.3986C80.7806 30.1744 80.5373 29.8768 80.3971 29.5118C80.2879 29.2341 80.2501 28.9425 80.2818 28.6488C80.3398 28.1172 80.5733 27.6867 80.977 27.3712C81.2642 27.1471 81.6123 26.9884 82.044 26.8852C82.2733 26.8297 82.5007 26.8019 82.6928 26.7821C82.8239 26.7681 82.9605 26.7602 83.1008 26.7582H83.1623V26.7444H86.1453C86.1629 27.8216 86.1788 28.9365 86.1709 29.0377L86.169 29.0357Z" fill="#2A3C54"/>
<path d="M99.3184 23.9351C99.2056 23.3697 98.9464 22.8539 98.5702 22.4393C98.133 21.9612 97.5763 21.6061 96.8659 21.3561C96.4757 21.2192 96.0659 21.12 95.6092 21.0526C95.3098 21.0089 95.0787 20.9851 94.8604 20.9752C94.5062 20.9593 94.1281 20.9494 93.7501 20.9891C93.6751 20.997 93.6019 21.003 93.5263 21.0089C93.3763 21.0208 93.2196 21.0347 93.0671 21.0625L93.0397 21.0684C92.7885 21.1141 92.5269 21.1597 92.2714 21.2153C91.9251 21.2906 91.555 21.3998 91.1391 21.5485C90.9989 21.6001 90.858 21.6537 90.7196 21.7092L90.7019 21.7172C90.6403 21.7409 90.5928 21.7886 90.569 21.8501C90.5458 21.9116 90.5476 21.977 90.5751 22.0365C90.7214 22.3461 91.0501 22.9789 91.2165 23.2685C91.2739 23.3697 91.4007 23.4134 91.5092 23.3697L91.6562 23.3102C91.8617 23.2269 92.0775 23.1396 92.2873 23.0602C92.608 22.9392 92.9684 22.848 93.3879 22.7786C93.5501 22.7527 93.7147 22.7408 93.897 22.7289C93.9403 22.7269 93.9836 22.723 94.0293 22.719C94.1043 22.713 94.1818 22.7051 94.255 22.7051C94.3068 22.7051 94.3519 22.7091 94.4013 22.713C94.4488 22.717 94.4964 22.721 94.544 22.723C94.7476 22.725 94.9476 22.7309 95.1458 22.7606C95.7037 22.848 96.2897 22.9828 96.7787 23.3737C97.0141 23.5621 97.1964 23.8141 97.3013 24.0998C97.3708 24.2902 97.408 24.4767 97.4123 24.6553L97.4184 24.9925V25.0064H94.1897C94.1598 25.0064 94.1324 25.0064 94.1025 25.0064C93.8312 25.0203 93.5324 25.0441 93.1684 25.0857C93.0476 25.0996 92.9306 25.1195 92.822 25.1432C92.4184 25.2345 92.0995 25.3337 91.822 25.4547C91.3178 25.675 90.9037 25.9447 90.5556 26.28C90.1989 26.6232 89.9239 27.026 89.7379 27.4782C89.6232 27.758 89.5476 28.0576 89.5159 28.371C89.4982 28.5476 89.4946 28.7261 89.5025 28.9046C89.5123 29.0971 89.5281 29.3034 89.5696 29.5137C89.7001 30.1803 90.0111 30.7735 90.4903 31.2734C90.8031 31.6007 91.1867 31.8765 91.6342 32.0947C92.1135 32.3288 92.6361 32.4895 93.1842 32.5728C93.5226 32.6244 93.8653 32.6442 94.1562 32.6561C94.1739 32.6561 94.1897 32.6561 94.2074 32.6561C94.2787 32.6561 94.3501 32.6502 94.4214 32.6442C94.4824 32.6402 94.544 32.6343 94.6056 32.6343C94.9421 32.6284 95.2604 32.5649 95.5275 32.5014C96.1891 32.3467 96.7946 32.0213 97.333 31.5372C97.4001 31.4757 97.4678 31.4162 97.5409 31.3507L97.547 31.3448V32.1622C97.547 32.2931 97.6537 32.3982 97.7824 32.3982H99.1562C99.2867 32.3982 99.3915 32.2911 99.3915 32.1622V24.6711C99.3915 24.4251 99.3659 24.1791 99.3184 23.9351ZM97.4757 29.0336C97.4342 29.5018 97.2184 29.9105 96.8324 30.2497C96.5769 30.4739 96.258 30.6346 95.8586 30.7417C95.5476 30.8251 95.3062 30.8667 95.0763 30.8746C94.9458 30.8786 94.8171 30.8905 94.6928 30.9004C94.6373 30.9044 94.5836 30.9103 94.5403 30.9123C94.4611 30.9064 94.3818 30.9044 94.3043 30.9004C94.1342 30.8925 93.9757 30.8845 93.8153 30.8647C93.2299 30.7873 92.7885 30.6385 92.4263 30.3965C92.0915 30.1723 91.8482 29.8748 91.7074 29.5098C91.6007 29.232 91.5611 28.9404 91.5928 28.6467C91.6501 28.1131 91.8836 27.6846 92.2873 27.3692C92.5745 27.145 92.9251 26.9863 93.3543 26.8831C93.5842 26.8276 93.8117 26.7998 94.0037 26.7799C94.1342 26.7661 94.2708 26.7581 94.4117 26.7562H94.4726V26.7423H97.4556C97.4739 27.8175 97.4897 28.9344 97.4818 29.0356L97.4757 29.0336Z" fill="#2A3C54"/>
<path d="M62.6343 14.0338C62.7886 14.0397 62.9428 14.0139 63.0977 14.0119C63.4203 14.008 63.7331 13.9485 64.0459 13.8751C64.7501 13.7104 65.3599 13.3692 65.8965 12.8871C65.9123 12.8732 65.9282 12.8593 65.944 12.8435V13.641C65.944 13.766 66.0446 13.8672 66.1696 13.8672H78.6026V12.0261H78.5825V1.59106C78.5825 1.45616 78.4739 1.34705 78.3392 1.34705H78.1867C77.9312 1.34705 77.6782 1.34308 77.4227 1.34308C77.2623 1.34308 77.1038 1.34308 76.9379 1.34308C76.7995 1.34308 76.6904 1.45219 76.6904 1.5871V12.0281H68.0184V4.92592H66.094V4.95766H62.7331V4.96163C62.6818 4.95766 62.6325 4.95567 62.5806 4.95766C62.2562 4.97353 61.9337 5.00329 61.6111 5.039C61.4922 5.05288 61.3733 5.07074 61.2562 5.09852C60.9062 5.17787 60.5578 5.27508 60.2272 5.41791C59.7462 5.6282 59.3068 5.89999 58.9267 6.265C58.5625 6.61614 58.2834 7.02284 58.0894 7.49101C57.9687 7.78465 57.8954 8.09014 57.8618 8.40358C57.844 8.58416 57.838 10.0066 57.8479 10.1891C57.8598 10.3993 57.8756 10.6077 57.9172 10.814C57.9607 11.0402 58.0261 11.2544 58.1072 11.4588C57.9172 11.5361 57.7193 11.6155 57.5253 11.6889C57.2185 11.8039 56.874 11.8913 56.4722 11.9567C56.3178 11.9825 56.1595 11.9924 55.9853 12.0043C55.9437 12.0063 55.9001 12.0102 55.8586 12.0142C55.8447 12.0142 55.8309 12.0162 55.817 12.0182V12.0003H52.1095C52.1095 12.0003 52.0976 12.0003 52.0917 12.0063C51.969 12.0023 51.8462 11.9944 51.7235 11.9745C51.189 11.8912 50.6309 11.7622 50.1637 11.3893C49.9381 11.2088 49.7639 10.9687 49.6629 10.6949C49.5956 10.5144 49.56 10.3359 49.558 10.1633L49.552 9.84391L49.4293 3.40827C49.4293 3.28329 49.3284 3.18211 49.2037 3.18211H47.8913C47.7666 3.18211 47.6656 3.28329 47.6656 3.40827V4.39623H47.5172V4.42599H44.2649V4.42995C44.2154 4.42599 44.1679 4.424 44.1184 4.42599C43.8057 4.44186 43.4929 4.46963 43.1802 4.50534C43.0654 4.51724 42.9506 4.53708 42.8378 4.56287C42.4973 4.63826 42.1628 4.73349 41.8421 4.87236C41.3769 5.07471 40.9513 5.33856 40.5831 5.69168C40.2308 6.03092 39.9616 6.42572 39.7736 6.878C39.6568 7.16174 39.5855 7.45734 39.5538 7.76081C39.536 7.93541 39.532 9.10391 39.5419 9.28046C39.5538 9.48482 39.5697 9.6852 39.6092 9.88553C39.7418 10.5581 40.0506 11.1354 40.5198 11.6274C40.8444 11.9666 41.2344 12.2364 41.654 12.4408C42.1429 12.6788 42.6576 12.8335 43.1979 12.9169C43.5206 12.9664 43.8453 12.9863 44.1699 13.0002C44.3184 13.0062 44.4688 12.9804 44.6173 12.9784C44.9281 12.9744 45.2329 12.9169 45.5337 12.8454C46.2147 12.6848 46.8065 12.3574 47.3232 11.8892C47.3845 11.8337 47.6498 11.5639 47.8754 11.3337C48.0081 11.6849 48.204 12.0043 48.4514 12.2781C48.8691 12.7364 49.4016 13.0756 50.0806 13.3136C50.4527 13.4446 50.8446 13.5398 51.2821 13.6033C51.5691 13.645 51.7889 13.6687 51.9967 13.6787C52.1056 13.6846 52.2184 13.6866 52.3332 13.6886V13.6787H55.6487V13.6905C55.8072 13.6886 55.9654 13.6827 56.1238 13.6648C56.1951 13.6569 56.2664 13.6509 56.3376 13.645C56.4821 13.633 56.6306 13.6211 56.777 13.5953L56.8067 13.5894C57.0482 13.5458 57.2957 13.5021 57.5392 13.4505C57.8697 13.3791 58.224 13.274 58.6219 13.1311C58.7565 13.0815 58.8911 13.0299 59.0237 12.9784L59.0415 12.9724C59.0851 12.9546 59.1227 12.9228 59.1484 12.8851C59.4176 13.1113 59.7165 13.3018 60.0332 13.4565C60.538 13.7025 61.0703 13.8632 61.6288 13.9485C61.9629 14.0001 62.2977 14.0199 62.6343 14.0358V14.0338ZM47.5746 9.42328C47.531 9.90539 47.3113 10.3319 46.9055 10.689C46.6165 10.9429 46.2701 11.0977 45.8979 11.1968C45.6347 11.2663 45.3695 11.3219 45.0963 11.3318C44.9102 11.3377 44.7242 11.3576 44.5479 11.3695C44.2946 11.3536 44.0531 11.3516 43.8136 11.3199C43.3089 11.2544 42.8179 11.1274 42.3864 10.8378C42.044 10.6096 41.7906 10.3062 41.6401 9.91529C41.5273 9.62366 41.4878 8.32823 41.5214 8.02274C41.5788 7.48508 41.8084 7.0328 42.2439 6.69351C42.5725 6.43764 42.9426 6.28883 43.3405 6.19362C43.5582 6.14204 43.78 6.11228 44.0036 6.08845C44.1422 6.07457 44.2808 6.06663 44.4193 6.06266V6.04878H47.5429C47.5627 7.51881 47.5825 9.3043 47.5726 9.41937L47.5746 9.42328ZM66.0605 13.6569C66.0861 13.6945 66.1178 13.7263 66.1556 13.7521C66.1062 13.7461 66.0666 13.7064 66.0605 13.6569ZM60.0193 10.8477C59.9026 10.5462 59.8611 8.99281 59.8967 8.67736C59.9561 8.1199 60.1936 7.6557 60.6449 7.30456C60.9837 7.04068 61.3672 6.88595 61.7794 6.78676C62.005 6.73323 62.2325 6.70347 62.4642 6.67768C62.6062 6.66179 62.7507 6.65385 62.8934 6.65189V6.63796H66.1203C66.1416 8.22905 66.1636 10.2169 66.152 10.3359C66.1081 10.8338 65.8806 11.2742 65.4611 11.6433C65.1617 11.9051 64.8038 12.0658 64.4197 12.1689C64.1483 12.2423 63.8733 12.2999 63.5904 12.3098C63.3965 12.3177 63.2044 12.3376 63.0239 12.3495C62.7629 12.3336 62.5117 12.3297 62.266 12.2979C61.7434 12.2285 61.2386 12.0976 60.7914 11.8C60.4371 11.5639 60.1758 11.2504 60.0193 10.8477Z" fill="#2A3C54"/>
<path d="M47.794 0.228143C47.794 0.105145 47.6951 0.0039678 47.5704 0.0039678H47.4298C47.1963 0.0039678 46.9627 0.00198385 46.7291 0C46.5826 0 46.4362 0 46.2857 0C46.159 0 46.0581 0.101177 46.0581 0.224176V1.65453H47.794V0.230127V0.228143Z" fill="#2A3C54"/>
<path d="M45.1071 0.228143C45.1071 0.105145 45.0081 0.0039678 44.8834 0.0039678H44.7429C44.5093 0.0039678 44.2757 0.00198385 44.0421 0C43.8957 0 43.7492 0 43.5968 0C43.4701 0 43.3691 0.101177 43.3691 0.224176V1.65453H45.1051V0.230127L45.1071 0.228143Z" fill="#2A3C54"/>
<path d="M24.7135 1.75786C24.3334 1.57535 23.8821 1.62693 23.5535 1.89079L17.5736 6.69765C17.3143 6.90597 17.1638 7.22137 17.1638 7.55467V22.4613H11.3779V15.4286C11.3779 14.8215 10.887 14.3315 10.2832 14.3315H9.2064C4.12912 14.3315 0 18.4698 0 23.5584C0 24.1655 0.490886 24.6555 1.09462 24.6555H9.1886V27.5023C9.1886 30.3115 11.469 32.5968 14.2718 32.5968C17.0748 32.5968 19.3551 30.3115 19.3551 27.5023V24.5702C22.738 24.0405 25.335 21.1024 25.335 17.5652V2.74781C25.335 2.32525 25.0935 1.94038 24.7135 1.75786ZM9.1886 16.5277V22.4613H2.27439C2.80093 19.1086 5.69883 16.5356 9.1886 16.5277ZM17.1658 27.5043C17.1658 29.1033 15.8673 30.4047 14.2718 30.4047C12.6764 30.4047 11.3779 29.1033 11.3779 27.5043V24.6575H17.1638V27.5043H17.1658ZM23.1457 17.5672C23.1457 19.8883 21.5246 21.8384 19.3571 22.3384V8.08041L23.1457 5.03321V17.5652V17.5672Z" fill="#2A3C54"/>
</g>
<defs>
<clipPath id="clip0_575_6495">
<rect width="100" height="33" fill="white"/>
</clipPath>
</defs>
</svg>
