<svg width="16" height="16" viewBox="0 0 16 16" fill="none" xmlns="http://www.w3.org/2000/svg">
<g clip-path="url(#clip0_575_6632)">
<path d="M15.5206 9.75334L14.05 8.60334C14.0686 8.426 14.0846 8.21869 14.0846 7.99934C14.0846 7.78 14.0693 7.57269 14.05 7.39534L15.522 6.24469C15.7953 6.02869 15.87 5.64534 15.696 5.32603L14.1666 2.68C14.0033 2.38134 13.6453 2.228 13.282 2.362L11.5466 3.05866C11.214 2.81866 10.8653 2.616 10.5046 2.454L10.2406 0.613344C10.1973 0.264 9.89327 0 9.53396 0H6.4673C6.10796 0 5.80465 0.264 5.76196 0.608L5.4973 2.45534C5.14796 2.61269 4.80465 2.81269 4.4573 3.06L2.7173 2.36134C2.39127 2.23534 2.00127 2.37666 1.83927 2.674L0.307958 5.32334C0.127302 5.62869 0.201958 6.02534 0.481302 6.24669L1.95196 7.39669C1.92861 7.62134 1.9173 7.81669 1.9173 8.00003C1.9173 8.18338 1.92865 8.37869 1.95196 8.60403L0.479958 9.75469C0.206615 9.97134 0.132615 10.3547 0.306615 10.6733L1.83596 13.3193C1.9993 13.6173 2.35396 13.772 2.72061 13.6373L4.45596 12.9407C4.78796 13.18 5.13661 13.3827 5.4973 13.5453L5.7613 15.3853C5.80461 15.736 6.10796 16 6.46796 16H9.53461C9.89396 16 10.198 15.736 10.2406 15.392L10.5053 13.5453C10.8546 13.3873 11.1973 13.188 11.5453 12.94L13.2853 13.6387C13.3693 13.6713 13.4566 13.688 13.5466 13.688C13.8053 13.688 14.0433 13.5467 14.1633 13.3267L15.6993 10.6667C15.87 10.3547 15.7953 9.97134 15.5206 9.75334ZM8.00062 10.6667C6.52996 10.6667 5.33396 9.47066 5.33396 8C5.33396 6.52934 6.52996 5.33334 8.00062 5.33334C9.47127 5.33334 10.6673 6.52934 10.6673 8C10.6673 9.47066 9.47127 10.6667 8.00062 10.6667Z" fill="black"/>
</g>
<defs>
<clipPath id="clip0_575_6632">
<rect width="16" height="16" fill="white"/>
</clipPath>
</defs>
</svg>
