<svg width="18" height="18" viewBox="0 0 18 18" fill="inherit" xmlns="http://www.w3.org/2000/svg">
  <path fill-rule="evenodd" clip-rule="evenodd"
    d="M1.31689 7.68292V17.3415C1.31689 17.705 1.61192 18 1.97543 18H16.0242C16.3877 18 16.6827 17.705 16.6827 17.3415V7.68292C16.6827 7.31941 16.3877 7.02438 16.0242 7.02438C15.6607 7.02438 15.3657 7.31941 15.3657 7.68292V16.6829H2.63397V7.68292C2.63397 7.31941 2.33894 7.02438 1.97543 7.02438C1.61192 7.02438 1.31689 7.31941 1.31689 7.68292Z"
    fill="inherit" />
  <path fill-rule="evenodd" clip-rule="evenodd"
    d="M7.2441 10.9756C6.83669 10.9756 6.44596 11.1372 6.15796 11.426C5.86908 11.714 5.70752 12.1048 5.70752 12.5122V17.3415C5.70752 17.705 6.00254 18 6.36606 18H11.6343C11.9979 18 12.2929 17.705 12.2929 17.3415V12.5122C12.2929 12.1048 12.1313 11.714 11.8424 11.426C11.5544 11.1372 11.1637 10.9756 10.7563 10.9756H7.2441ZM7.2441 12.2927H10.7563C10.8143 12.2927 10.8704 12.3155 10.9117 12.3568C10.953 12.398 10.9758 12.4542 10.9758 12.5122V16.6829H7.02459V12.5122C7.02459 12.4542 7.04742 12.398 7.08869 12.3568C7.12996 12.3155 7.18615 12.2927 7.2441 12.2927Z"
    fill="inherit" />
  <path fill-rule="evenodd" clip-rule="evenodd"
    d="M17.7805 16.6829H0.219572C-0.143941 16.6829 -0.438965 16.9779 -0.438965 17.3415C-0.438965 17.705 -0.143941 18 0.219572 18H17.7805C18.1441 18 18.4391 17.705 18.4391 17.3415C18.4391 16.9779 18.1441 16.6829 17.7805 16.6829Z"
    fill="inherit" />
  <path fill-rule="evenodd" clip-rule="evenodd"
    d="M14.428 0C12.4383 0 5.56146 0 3.5718 0C2.99053 0 2.45844 0.32839 2.19766 0.849073C1.66731 1.91063 0.419607 4.40605 0.00692384 5.34205C-0.20732 5.78107 -0.215222 6.29561 -0.0150274 6.74517C-0.0106371 6.75483 -0.00624695 6.76449 -0.000978653 6.77414C0.469655 7.704 1.43375 8.34146 2.54624 8.34146C3.40409 8.34146 4.17414 7.96214 4.69746 7.36156C5.22078 7.96214 5.99083 8.34146 6.84868 8.34146C7.70653 8.34146 8.47658 7.96214 8.9999 7.36156C9.52321 7.96214 10.2933 8.34146 11.1511 8.34146C12.009 8.34146 12.779 7.96214 13.3023 7.36156C13.8257 7.96214 14.5957 8.34146 15.4536 8.34146C16.5494 8.34146 17.5047 7.72068 18.0271 6.82946C18.0394 6.80927 18.0499 6.78732 18.0605 6.76536C18.2695 6.29649 18.2572 5.75912 18.0271 5.2999L15.8021 0.849073C15.5414 0.32839 15.0093 0 14.428 0ZM3.5718 1.31707H14.428C14.5105 1.31707 14.5869 1.36361 14.6238 1.43824L16.8497 5.88995C16.8979 5.98566 16.905 6.09629 16.8698 6.19639C16.5713 6.68195 16.0533 7.02439 15.4536 7.02439C14.7107 7.02439 14.0899 6.49668 13.9477 5.796C13.8854 5.48868 13.6149 5.26829 13.3023 5.26829C12.9889 5.26829 12.7193 5.48868 12.657 5.796C12.5147 6.49668 11.8939 7.02439 11.1511 7.02439C10.4083 7.02439 9.78751 6.49668 9.64526 5.796C9.58292 5.48868 9.31336 5.26829 8.9999 5.26829C8.68643 5.26829 8.41687 5.48868 8.35453 5.796C8.21229 6.49668 7.59151 7.02439 6.84868 7.02439C6.10585 7.02439 5.48507 6.49668 5.34283 5.796C5.28048 5.48868 5.01092 5.26829 4.69746 5.26829C4.38487 5.26829 4.11444 5.48868 4.05209 5.796C3.90985 6.49668 3.28907 7.02439 2.54624 7.02439C1.95619 7.02439 1.44253 6.68985 1.18527 6.20078C1.14575 6.10332 1.15014 5.99971 1.19405 5.9119C1.19844 5.90224 1.2037 5.89258 1.20809 5.88293C1.61112 4.96624 2.85005 2.49015 3.376 1.43824C3.41287 1.36361 3.48926 1.31707 3.5718 1.31707Z"
    fill="inherit" />
</svg>
