<svg width="14" height="15" viewBox="0 0 14 15" fill="none" xmlns="http://www.w3.org/2000/svg">
<path d="M7 0.5C3.13111 0.5 0 3.63075 0 7.5C0 11.3688 3.13075 14.5 7 14.5C10.8689 14.5 14 11.3693 14 7.5C14 3.63111 10.8693 0.5 7 0.5ZM6.79287 10.7763C6.39666 10.7763 6.0926 10.4446 6.0926 10.0668C6.0926 9.67979 6.40588 9.35732 6.79287 9.35732C7.17989 9.35732 7.50233 9.67982 7.50233 10.0668C7.50233 10.4446 7.18905 10.7763 6.79287 10.7763ZM7.84325 7.192C7.33649 7.58821 7.32725 7.86463 7.32725 8.34375C7.32725 8.51886 7.2351 8.72155 6.78363 8.72155C6.40582 8.72155 6.27687 8.58333 6.27687 8.10421C6.27687 7.31179 6.627 6.93401 6.89421 6.70367C7.19827 6.44565 7.71427 6.16005 7.71427 5.6625C7.71427 5.23862 7.34571 5.03592 6.88499 5.03592C5.94516 5.03592 6.14789 5.74543 5.65029 5.74543C5.40151 5.74543 5.09745 5.57954 5.09745 5.22021C5.09745 4.72267 5.66871 3.98551 6.91264 3.98551C8.09203 3.98551 8.87523 4.63973 8.87523 5.50585C8.87523 6.37196 8.09203 6.99852 7.84325 7.192Z" fill="#101010"/>
</svg>
