<svg width="16" height="16" viewBox="0 0 16 16" fill="none" xmlns="http://www.w3.org/2000/svg">
<g clip-path="url(#clip0_575_6628)">
<path d="M7.88599 7.70724C8.94482 7.70724 9.86169 7.32748 10.6108 6.57822C11.36 5.82907 11.7397 4.91245 11.7397 3.85349C11.7397 2.79489 11.36 1.87814 10.6107 1.12875C9.86145 0.37973 8.9447 -3.05176e-05 7.88599 -3.05176e-05C6.82703 -3.05176e-05 5.9104 0.37973 5.16125 1.12888C4.41211 1.87802 4.03223 2.79477 4.03223 3.85349C4.03223 4.91245 4.41211 5.82919 5.16138 6.57834C5.91064 7.32736 6.82739 7.70724 7.88599 7.70724Z" fill="black"/>
<path d="M14.629 12.3032C14.6074 11.9914 14.5637 11.6513 14.4994 11.2922C14.4344 10.9304 14.3508 10.5883 14.2507 10.2757C14.1473 9.95261 14.0067 9.63351 13.8329 9.32773C13.6525 9.01035 13.4406 8.73398 13.2028 8.50656C12.9541 8.26865 12.6497 8.07736 12.2976 7.93784C11.9468 7.79904 11.558 7.72873 11.1421 7.72873C10.9788 7.72873 10.8208 7.79575 10.5157 7.99435C10.328 8.11679 10.1084 8.25839 9.86328 8.41501C9.65369 8.54855 9.36975 8.67368 9.01904 8.78696C8.67688 8.89767 8.32947 8.95383 7.98657 8.95383C7.64368 8.95383 7.29639 8.89767 6.95386 8.78696C6.60352 8.6738 6.31958 8.54868 6.11023 8.41513C5.86743 8.25998 5.64771 8.11838 5.45715 7.99423C5.15247 7.79562 4.99438 7.72861 4.83105 7.72861C4.41504 7.72861 4.02637 7.79904 3.67566 7.93796C3.32385 8.07724 3.01929 8.26852 2.77039 8.50668C2.53271 8.73422 2.32068 9.01047 2.1405 9.32773C1.9668 9.63351 1.82617 9.95248 1.72266 10.2758C1.62268 10.5885 1.53906 10.9304 1.47412 11.2922C1.40979 11.6508 1.36609 11.9911 1.34448 12.3036C1.32324 12.6097 1.3125 12.9275 1.3125 13.2484C1.3125 14.0836 1.578 14.7597 2.10156 15.2584C2.61865 15.7505 3.30286 16.0001 4.13489 16.0001H11.839C12.671 16.0001 13.355 15.7506 13.8722 15.2584C14.3959 14.7601 14.6614 14.0838 14.6614 13.2483C14.6613 12.9259 14.6504 12.6079 14.629 12.3032Z" fill="black"/>
</g>
<defs>
<clipPath id="clip0_575_6628">
<rect width="16" height="16.0001" fill="white"/>
</clipPath>
</defs>
</svg>
